<?xml version="1.0" standalone="no"?>
<!DOCTYPE svg PUBLIC "-//W3C//DTD SVG 20010904//EN"
 "http://www.w3.org/TR/2001/REC-SVG-20010904/DTD/svg10.dtd">
<svg version="1.0" xmlns="http://www.w3.org/2000/svg"
 width="1300.000000pt" height="1300.000000pt" viewBox="0 0 1300.000000 1300.000000"
 preserveAspectRatio="xMidYMid meet">
<metadata>
Created by potrace 1.16, written by Peter Selinger 2001-2019
</metadata>
<g transform="translate(0.000000,1300.000000) scale(0.100000,-0.100000)"
fill="#000000" stroke="none">
<path d="M6595 11179 c-75 -12 -164 -47 -225 -89 -63 -43 -142 -120 -161 -159
-8 -14 -17 -28 -20 -31 -15 -13 -45 -92 -84 -224 l-42 -144 223 -223 c123
-122 220 -227 217 -232 -3 -6 -1 -7 6 -3 6 4 9 12 6 17 -4 5 1 16 9 25 14 14
15 12 10 -15 -5 -25 -1 -36 24 -61 l30 -30 906 0 c498 0 906 4 906 9 0 58 -81
152 -181 210 -168 97 -472 183 -792 224 -59 8 -109 16 -110 18 -2 2 -23 72
-46 154 -24 83 -46 155 -49 160 -4 6 -8 18 -9 29 -7 43 -72 145 -133 207 -126
128 -309 188 -485 158z m157 -219 c62 -18 129 -70 161 -127 60 -109 41 -237
-48 -327 -126 -125 -346 -90 -427 68 -29 57 -36 168 -14 221 58 138 188 203
328 165z"/>
<path d="M6057 10503 c-4 -3 -7 -15 -7 -25 0 -15 -8 -18 -42 -18 -24 0 -61 -5
-83 -10 -22 -5 -76 -14 -120 -20 -85 -11 -382 -85 -477 -118 -104 -37 -237
-113 -289 -164 -54 -54 -71 -84 -62 -117 l5 -21 719 0 720 0 38 37 38 38 -213
212 c-116 117 -214 213 -216 213 -3 0 -8 -3 -11 -7z"/>
<path d="M5326 9147 l-54 -54 -43 18 c-39 16 -84 18 -420 18 -424 1 -441 -1
-510 -70 -77 -77 -74 -56 -74 -509 l0 -405 27 -46 c31 -53 76 -94 128 -118 30
-14 90 -16 425 -16 382 0 391 0 430 22 59 32 103 77 128 130 21 46 22 62 25
403 3 328 0 393 -24 453 -3 10 14 36 50 74 63 66 74 109 34 137 -38 27 -64 19
-122 -37z m-141 -139 c4 -4 -11 -28 -34 -54 -23 -26 -39 -54 -36 -61 2 -8 1
-12 -4 -9 -5 3 -16 -4 -24 -17 -8 -12 -24 -33 -36 -46 -11 -13 -21 -30 -21
-38 0 -7 -5 -13 -10 -13 -14 0 -59 -51 -60 -67 0 -7 -10 -23 -22 -35 -27 -27
-88 -114 -88 -125 0 -5 5 -1 11 7 9 13 10 13 6 0 -2 -8 -10 -15 -18 -15 -15 0
-71 -94 -63 -107 3 -4 3 -8 0 -8 -3 0 -19 18 -35 40 -15 21 -31 36 -35 32 -4
-3 -4 1 -1 10 7 17 -67 165 -89 180 -6 4 -25 8 -43 8 -34 0 -63 -29 -63 -61 0
-17 56 -129 89 -179 9 -14 37 -65 61 -114 27 -52 54 -93 67 -98 31 -15 76 3
84 33 4 13 7 20 8 14 1 -5 10 5 21 23 11 18 18 38 14 43 -3 5 -2 8 3 7 4 -2 9
0 11 4 1 4 14 19 27 32 14 14 25 31 25 39 0 7 14 29 31 48 35 39 52 76 43 91
-4 6 -2 8 4 4 11 -7 72 60 72 80 0 6 9 19 20 29 11 10 17 22 13 28 -4 6 -1 7
6 3 8 -5 14 0 18 13 3 12 10 21 15 21 5 0 8 3 6 8 -2 4 22 33 54 65 l58 59 0
-355 c0 -352 0 -354 -23 -388 -12 -19 -34 -39 -47 -46 -17 -7 -145 -13 -395
-16 l-370 -5 -47 35 c-40 29 -48 40 -53 76 -3 23 -5 200 -3 394 3 337 4 353
24 380 46 63 51 64 456 61 201 -2 370 -6 373 -10z"/>
<path d="M5870 8545 l0 -45 1430 0 1430 1 0 44 0 45 -1430 0 -1430 0 0 -45z"/>
<path d="M5325 7529 l-54 -51 -41 16 c-35 14 -94 16 -433 16 l-392 0 -50 -28
c-56 -31 -109 -95 -125 -150 -13 -50 -13 -754 0 -804 16 -57 69 -119 129 -150
l53 -28 382 0 c225 0 396 4 417 10 50 14 127 84 153 139 20 44 21 64 24 409 3
303 1 372 -12 415 l-15 52 54 55 c60 61 71 102 37 133 -34 31 -69 21 -127 -34z
m-146 -138 c10 -7 -4 -29 -61 -97 -77 -93 -223 -291 -299 -406 -26 -39 -48
-63 -53 -58 -5 5 -37 59 -70 121 -70 128 -96 148 -145 112 -14 -11 -27 -29
-29 -41 -3 -18 39 -108 103 -222 14 -25 42 -75 61 -112 28 -53 42 -68 64 -73
37 -8 66 8 86 48 52 100 325 485 406 572 l28 30 0 -354 0 -355 -26 -38 c-18
-25 -39 -42 -63 -49 -23 -6 -164 -9 -398 -7 -347 3 -363 4 -390 24 -62 45 -63
53 -63 449 0 342 1 362 20 393 11 18 34 41 52 52 31 19 51 20 398 20 201 0
371 -4 379 -9z"/>
<path d="M5876 6973 c-3 -4 -6 -24 -6 -45 l0 -38 126 0 c119 0 126 1 113 18
-13 16 -13 16 7 0 19 -16 53 -18 399 -18 346 0 380 2 399 18 18 14 19 15 8 0
-11 -14 -10 -17 4 -20 10 -1 420 -2 911 0 l894 2 -3 43 -3 42 -860 2 c-783 2
-862 1 -885 -14 -23 -15 -24 -15 -11 0 13 16 -17 17 -442 17 -294 0 -458 -4
-462 -10 -4 -6 -13 -7 -23 -2 -19 10 -157 14 -166 5z"/>
<path d="M5382 5963 c-7 -3 -34 -28 -61 -56 l-49 -51 -43 19 c-41 19 -68 20
-429 20 -425 0 -418 1 -494 -65 -20 -18 -47 -52 -59 -74 -21 -40 -22 -52 -25
-421 -3 -401 -1 -428 42 -492 27 -39 88 -85 135 -101 24 -8 145 -12 400 -12
322 0 372 2 414 17 64 23 119 71 148 130 l24 48 0 390 c0 265 -4 398 -11 415
-10 23 -6 30 42 84 58 64 68 100 37 128 -21 19 -53 28 -71 21z m-202 -189 c7
-7 0 -23 -28 -55 -67 -77 -227 -290 -305 -407 -87 -131 -69 -134 -152 23 -49
94 -76 124 -111 125 -27 0 -64 -35 -64 -62 0 -12 23 -64 52 -117 28 -53 60
-112 70 -131 10 -19 26 -41 35 -47 9 -7 13 -13 8 -13 -5 0 0 -7 11 -16 10 -8
13 -13 7 -9 -18 9 -16 -6 3 -33 35 -50 97 -48 124 4 8 16 23 40 33 54 10 14
49 73 86 131 61 95 106 157 217 303 17 23 48 59 68 81 l36 40 -3 -362 -2 -361
-25 -27 c-51 -55 -51 -55 -435 -55 -393 0 -403 1 -446 61 l-24 34 -3 365 c-2
318 -1 370 13 400 19 40 55 70 99 81 49 12 723 6 736 -7z"/>
<path d="M5870 5315 l0 -45 1430 0 1430 0 0 45 0 45 -1430 0 -1430 0 0 -45z"/>
<path d="M5328 4294 l-55 -56 -34 18 c-32 18 -63 19 -434 19 -394 0 -401 0
-440 -22 -57 -32 -79 -52 -111 -103 l-29 -45 -3 -390 c-3 -346 -1 -395 14
-434 21 -55 75 -116 128 -144 40 -22 49 -22 436 -22 l395 0 49 25 c66 34 112
92 131 168 14 52 16 119 13 419 -2 271 -6 364 -16 381 -12 21 -9 27 42 85 63
70 72 106 34 138 -38 31 -62 23 -120 -37z m-143 -136 c7 -7 -23 -48 -116 -158
-53 -63 -107 -137 -215 -297 -42 -62 -79 -113 -83 -113 -4 0 -35 53 -70 118
-35 64 -69 120 -75 124 -38 26 -106 -9 -106 -54 0 -13 25 -68 56 -123 30 -55
74 -134 96 -175 46 -85 61 -100 98 -100 32 0 52 22 115 125 87 144 268 395
359 499 l26 29 0 -355 c0 -353 0 -355 -23 -389 -43 -64 -43 -64 -447 -64 -410
0 -406 -1 -449 75 -20 36 -21 51 -21 396 0 412 0 411 80 452 45 22 47 23 407
20 199 -2 364 -6 368 -10z"/>
<path d="M5870 3695 l0 -45 762 0 762 0 25 23 26 22 -19 -22 -19 -23 661 0
662 0 0 45 0 45 -1430 0 -1430 0 0 -45z"/>
</g>
</svg>
